<svg width="154" height="154" viewBox="0 0 210 210" fill="none" xmlns="http://www.w3.org/2000/svg">
<circle cx="104" cy="104.5" r="23" stroke="black" stroke-width="8"/>
<path d="M164 104C164 137.748 137.079 165 104 165C70.9212 165 44 137.748 44 104C44 70.2519 70.9212 43 104 43C137.079 43 164 70.2519 164 104Z" stroke="black" stroke-width="8"/>
<circle cx="104" cy="104" r="73" stroke="black" stroke-width="8"/>
<path opacity="0.8" d="M4 99C1.79086 99 0 100.791 0 103C0 105.209 1.79086 107 4 107V99ZM4 107H28V99H4V107Z" fill="black"/>
<path opacity="0.8" d="M4 99C1.79086 99 0 100.791 0 103C0 105.209 1.79086 107 4 107V99ZM28 107H32V99H28V107ZM4 107H28V99H4V107Z" fill="black"/>
<line opacity="0.8" x1="45" y1="103" x2="80" y2="103" stroke="black" stroke-width="8"/>
<line opacity="0.8" x1="127" y1="103" x2="162" y2="103" stroke="black" stroke-width="8"/>
<line opacity="0.8" x1="45" y1="103" x2="80" y2="103" stroke="black" stroke-width="8"/>
<line opacity="0.8" x1="127" y1="103" x2="162" y2="103" stroke="black" stroke-width="8"/>
<line x1="104" y1="81" x2="104" y2="46" stroke="black" stroke-width="8"/>
<line opacity="0.8" x1="104" y1="164" x2="104" y2="129" stroke="black" stroke-width="8"/>
<path d="M100 28V32H108V28H100ZM108 4C108 1.79086 106.209 0 104 0C101.791 0 100 1.79086 100 4H108ZM108 28V4H100V28H108Z" fill="black"/>
<path opacity="0.8" d="M104 203V179" stroke="black" stroke-width="8" stroke-linecap="round"/>
<line x1="104" y1="164" x2="104" y2="129" stroke="black" stroke-width="8"/>
<path d="M108 178.998L107.998 174.998L99.9978 175.002L100 179.002L108 178.998ZM100.013 203.002C100.014 205.211 101.806 207.001 104.015 207C106.224 206.999 108.014 205.207 108.013 202.998L100.013 203.002ZM100 179.002L100.013 203.002L108.013 202.998L108 178.998L100 179.002Z" fill="black"/>
<line opacity="0.8" x1="122.391" y1="86.6969" x2="147.14" y2="61.9482" stroke="black" stroke-width="8"/>
<line opacity="0.8" x1="122.391" y1="86.6969" x2="147.14" y2="61.9482" stroke="black" stroke-width="8"/>
<line opacity="0.8" x1="62.1716" y1="145.92" x2="86.9203" y2="121.172" stroke="black" stroke-width="8"/>
<line opacity="0.8" x1="62.1716" y1="145.92" x2="86.9203" y2="121.172" stroke="black" stroke-width="8"/>
<line opacity="0.8" x1="87.9203" y1="87.5771" x2="63.1716" y2="62.8284" stroke="black" stroke-width="8"/>
<line opacity="0.8" x1="87.9203" y1="87.5771" x2="63.1716" y2="62.8284" stroke="black" stroke-width="8"/>
<line opacity="0.8" x1="146.92" y1="145.577" x2="122.172" y2="120.828" stroke="black" stroke-width="8"/>
<line opacity="0.8" x1="146.92" y1="145.577" x2="122.172" y2="120.828" stroke="black" stroke-width="8"/>
<path d="M51.799 159.828L54.6274 157L48.9706 151.343L46.1421 154.172L51.799 159.828ZM29.1716 171.142C27.6095 172.704 27.6095 175.237 29.1716 176.799C30.7337 178.361 33.2663 178.361 34.8284 176.799L29.1716 171.142ZM46.1421 154.172L29.1716 171.142L34.8284 176.799L51.799 159.828L46.1421 154.172Z" fill="black"/>
<path d="M46.1421 51.799L48.9706 54.6274L54.6274 48.9706L51.799 46.1422L46.1421 51.799ZM34.8284 29.1716C33.2663 27.6095 30.7337 27.6095 29.1716 29.1716C27.6095 30.7337 27.6095 33.2663 29.1716 34.8284L34.8284 29.1716ZM51.799 46.1422L34.8284 29.1716L29.1716 34.8284L46.1421 51.799L51.799 46.1422Z" fill="black"/>
<path d="M156.172 48.1422L153.343 50.9706L159 56.6274L161.828 53.799L156.172 48.1422ZM178.799 36.8284C180.361 35.2663 180.361 32.7337 178.799 31.1716C177.237 29.6095 174.704 29.6095 173.142 31.1716L178.799 36.8284ZM161.828 53.799L178.799 36.8284L173.142 31.1716L156.172 48.1422L161.828 53.799Z" fill="black"/>
<path d="M181 99H177V107H181V99ZM205 107C207.209 107 209 105.209 209 103C209 100.791 207.209 99 205 99V107ZM181 107H205V99H181V107Z" fill="black"/>
<path d="M161.828 155.172L159 152.343L153.343 158L156.172 160.828L161.828 155.172ZM173.142 177.799C174.704 179.361 177.237 179.361 178.799 177.799C180.361 176.237 180.361 173.704 178.799 172.142L173.142 177.799ZM156.172 160.828L173.142 177.799L178.799 172.142L161.828 155.172L156.172 160.828Z" fill="black"/>
</svg>
